<?xml version="1.0" encoding="UTF-8"?>
<svg id="Layer_2" data-name="Layer 2" xmlns="http://www.w3.org/2000/svg" viewBox="0 0 179.3 179.3">
  <defs>
    <style>
      .cls-1 {
        stroke-width: 0px;
      }
    </style>
  </defs>
  <g id="Layer_1-2" data-name="Layer 1">
    <g>
      <path class="cls-1" d="m55.18,131.27c-6.04,6.38-7.73,14.4-4.36,16.35,3.12,1.81,10.4-.34,15.61-6.02,1.71-1.86,3.1-3.88,4.14-6.04.21-.43.4-.87.58-1.31.18-.44.34-.89.49-1.34,1.35-4.07,1.49-8.57.19-13.4-.28.15-.55.3-.82.45v.03s-9.33,4.42-15.83,11.28Z"/>
      <path class="cls-1" d="m89.65,0C40.14,0,0,40.14,0,89.65s40.14,89.65,89.65,89.65,89.65-40.14,89.65-89.65S139.16,0,89.65,0Zm29.23,79.49c-15.54,6.01-28.39,5.06-33.67,3.33-6-1.97-9.52-5.93-10.38-8.16-.34-.88-.92-2.34,0-2.85.56-.31.79-.24,2.3,1.43,1.43,1.58,7.2,5.82,18.14,4.59,28.73-3.22,46.03-25.54,40.56-37.55-3.83-8.41-25.97-12.2-53.64,1.58-33.77,16.83-35.6,30.7-35.89,35.97-.79,14.49,17.89,22.12,27.99,32.9.24.25.47.51.69.77,3.06-1.14,7.29-1.78,14.02-1.89,16.34-.28,25.57,10.49,25.19,20.12-.3,7.59-7.26,10.71-8.56,10.93-.94.16-1.45.19-1.58-.55-.09-.51.24-.74,1.35-1.43,1.1-.68,4.4-2.94,4.99-7.05.59-4.11-2.5-13.93-18.22-15.77-5.57-.65-9.96-.21-13.72.79,2.73,6.01,3.25,18.1-3.03,27.46-6.5,9.7-18.6,15.6-30.39,12.32-3.81-1.06-9.55-8.92-4.59-19.89,4.7-10.39,24.78-20.55,27.52-21.9v-.05c-9.3-8.01-31.94-18.81-35.13-35.33-.9-4.68,1.29-15.89,15.05-28.76,11.57-10.83,27.67-19.12,42.54-24.4,24.99-8.88,51.39-3.64,55.45,12.28,3.99,15.66-9.6,34.39-27.01,41.12Z"/>
    </g>
  </g>
</svg>