<?xml version="1.0" encoding="UTF-8"?>
<svg id="Layer_2" data-name="Layer 2" xmlns="http://www.w3.org/2000/svg" viewBox="0 0 179.48 179.48">
  <defs>
    <style>
      .cls-1 {
        fill: #fff;
      }

      .cls-1, .cls-2 {
        fill-rule: evenodd;
        stroke-width: 0px;
      }
    </style>
  </defs>
  <g id="Layer_1-2" data-name="Layer 1">
    <g>
      <path class="cls-2" d="M19.94,179.48h139.59c11.01,0,19.94-8.93,19.94-19.94V19.94c0-11.01-8.93-19.94-19.94-19.94H19.94C8.93,0,0,8.93,0,19.94v139.59c0,11.01,8.93,19.94,19.94,19.94Z"/>
      <path class="cls-1" d="M154.55,154.55h-26.63v-45.36c0-12.44-4.73-19.39-14.57-19.39-10.71,0-16.3,7.23-16.3,19.39v45.36h-25.67v-86.42h25.67v11.64s7.72-14.28,26.06-14.28,31.45,11.19,31.45,34.34v54.71ZM40.75,56.82c-8.74,0-15.83-7.14-15.83-15.95s7.08-15.95,15.83-15.95,15.82,7.14,15.82,15.95-7.08,15.95-15.82,15.95ZM27.5,154.55h26.76v-86.42h-26.76v86.42Z"/>
    </g>
  </g>
</svg>