<?xml version="1.0" encoding="UTF-8"?>
<svg id="Layer_2" data-name="Layer 2" xmlns="http://www.w3.org/2000/svg" viewBox="0 0 179.3 179.3">
  <defs>
    <style>
      .cls-1 {
        stroke-width: 0px;
      }
    </style>
  </defs>
  <g id="Layer_1-2" data-name="Layer 1">
    <path class="cls-1" d="m170.9,0H8.4C3.76,0,0,3.76,0,8.4v162.49c0,4.64,3.76,8.4,8.4,8.4h162.49c4.64,0,8.4-3.76,8.4-8.4V8.4c0-4.64-3.76-8.4-8.4-8.4Zm-80.32,136.59c0,19.02-11.15,27.67-27.43,27.67-14.71,0-23.22-7.61-27.55-16.78l14.95-9.05c2.89,5.12,5.51,9.45,11.82,9.45s9.84-2.36,9.84-11.54v-62.45h18.37v62.7Zm43.4,27.71c-17.06,0-28.08-8.13-33.47-18.78l14.93-8.67c3.94,6.43,9.06,11.15,18.12,11.15,7.61,0,12.47-3.8,12.47-9.06,0-6.3-5-8.53-13.37-12.19l-4.59-1.97c-13.25-5.65-22.06-12.72-22.06-27.67,0-13.78,10.5-24.26,26.9-24.26,11.68,0,20.07,4.06,26.12,14.71l-14.3,9.18c-3.15-5.65-6.55-7.87-11.82-7.87s-8.79,3.41-8.79,7.87c0,5.51,3.41,7.74,11.29,11.15l4.59,1.97c15.61,6.69,24.42,13.51,24.42,28.85,0,16.54-12.99,25.6-30.44,25.6Z"/>
  </g>
</svg>