<?xml version="1.0" encoding="UTF-8"?>
<svg id="Layer_2" data-name="Layer 2" xmlns="http://www.w3.org/2000/svg" viewBox="0 0 182.19 179.15">
  <defs>
    <style>
      .cls-1 {
        fill-rule: evenodd;
        stroke-width: 0px;
      }
    </style>
  </defs>
  <g id="Layer_1-2" data-name="Layer 1">
    <path class="cls-1" d="M91.17,0C40.76,0,0,41.06,0,91.85c0,40.6,26.11,74.97,62.34,87.13,4.53.91,6.19-1.98,6.19-4.41,0-2.13-.15-9.43-.15-17.03-25.36,5.48-30.64-10.95-30.64-10.95-4.08-10.64-10.11-13.38-10.11-13.38-8.3-5.63.6-5.63.6-5.63,9.21.61,14.04,9.43,14.04,9.43,8.15,13.99,21.28,10.04,26.56,7.6.75-5.93,3.17-10.04,5.74-12.32-20.23-2.13-41.51-10.04-41.51-45.32,0-10.04,3.62-18.25,9.36-24.63-.91-2.28-4.08-11.71.91-24.33,0,0,7.7-2.43,25.06,9.43,7.43-2.01,15.09-3.03,22.79-3.04,7.7,0,15.55,1.07,22.79,3.04,17.36-11.86,25.06-9.43,25.06-9.43,4.98,12.62,1.81,22.05.91,24.33,5.89,6.39,9.36,14.6,9.36,24.63,0,35.28-21.28,43.03-41.66,45.32,3.32,2.89,6.19,8.36,6.19,17.03,0,12.32-.15,22.2-.15,25.24,0,2.43,1.66,5.32,6.19,4.41,36.23-12.17,62.34-46.53,62.34-87.13C182.34,41.06,141.43,0,91.17,0Z"/>
  </g>
</svg>