<?xml version="1.0" encoding="UTF-8"?>
<svg id="Layer_2" data-name="Layer 2" xmlns="http://www.w3.org/2000/svg" viewBox="0 0 179.3 179.3">
  <defs>
    <style>
      .cls-1 {
        stroke-width: 0px;
      }
    </style>
  </defs>
  <g id="Layer_1-2" data-name="Layer 1">
    <path class="cls-1" d="m170.9,0H8.4C3.76,0,0,3.76,0,8.4v162.49c0,4.64,3.76,8.4,8.4,8.4h162.49c4.64,0,8.4-3.76,8.4-8.4V8.4c0-4.64-3.76-8.4-8.4-8.4Zm-74.24,90.43h-25.63v72.07h-20.3v-72.07h-25.51v-16.19h71.44v16.19Zm64.45,59.56c-1.86,3.34-4.38,6.04-7.56,8.11-3.18,2.07-6.89,3.55-11.11,4.45-4.22.9-8.68,1.35-13.37,1.35s-9.4-.41-13.74-1.23c-4.35-.82-8.11-2.05-11.29-3.68v-19.65c3.55,2.99,7.41,5.23,11.57,6.72,4.16,1.49,8.37,2.24,12.61,2.24,2.49,0,4.66-.23,6.52-.68,1.86-.45,3.41-1.07,4.65-1.87,1.24-.8,2.17-1.74,2.79-2.82.61-1.08.92-2.26.92-3.53,0-1.72-.49-3.25-1.47-4.6-.98-1.35-2.32-2.6-4.01-3.75-1.69-1.15-3.7-2.25-6.03-3.32-2.33-1.06-4.84-2.15-7.53-3.25-6.86-2.87-11.97-6.36-15.33-10.5-3.37-4.13-5.05-9.13-5.05-14.98,0-4.58.92-8.52,2.75-11.82,1.84-3.29,4.34-6.01,7.5-8.14,3.16-2.13,6.83-3.69,10.99-4.7,4.16-1,8.57-1.5,13.22-1.5s8.62.28,12.15.83c3.53.55,6.78,1.4,9.76,2.55v18.36c-1.47-1.02-3.07-1.92-4.8-2.7-1.74-.78-3.52-1.42-5.36-1.93-1.84-.51-3.66-.89-5.48-1.14-1.82-.25-3.54-.37-5.17-.37-2.24,0-4.28.21-6.12.64-1.84.43-3.39,1.03-4.65,1.81-1.27.78-2.24,1.71-2.94,2.79s-1.04,2.3-1.04,3.65c0,1.47.39,2.79,1.16,3.96.78,1.17,1.88,2.27,3.31,3.32,1.43,1.04,3.16,2.07,5.2,3.07,2.04,1,4.35,2.04,6.92,3.1,3.51,1.47,6.66,3.04,9.46,4.7,2.79,1.66,5.19,3.53,7.19,5.62,2,2.09,3.53,4.47,4.59,7.15,1.06,2.68,1.59,5.8,1.59,9.36,0,4.91-.93,9.04-2.78,12.37Z"/>
  </g>
</svg>