<?xml version="1.0" encoding="UTF-8"?>
<svg id="Layer_2" data-name="Layer 2" xmlns="http://www.w3.org/2000/svg" viewBox="0 0 152.17 144.72">
  <defs>
    <style>
      .cls-1 {
        stroke-width: 0px;
      }
    </style>
  </defs>
  <g id="Layer_1-2" data-name="Layer 1">
    <path class="cls-1" d="m103.25,30.4c-10.17,18.12-10.64,23.75-9.12,26.56.78,1.44,2.24,2.18,4.32,2.18,1.18,0,2.58-.23,4.23-.7-3.86,3.22-5.46,6.17-5.08,9.11.67,5.05,7.48,9.6,22.34,14.46-7.54-1.2-13.34-1.78-17.64-1.78-6.2,0-9.58,1.17-10.66,3.68-.66,1.54-.38,3.43.91,5.81-2-1.21-3.78-1.8-5.41-1.8-6.02,0-9.49,7.68-11.05,26.07-1.56-18.39-5.03-26.07-11.05-26.07-1.63,0-3.41.59-5.41,1.8,1.29-2.38,1.57-4.26.91-5.8-1.08-2.51-4.47-3.69-10.66-3.69-4.3,0-10.1.58-17.64,1.78,14.86-4.86,21.67-9.42,22.34-14.46.39-2.94-1.22-5.89-5.08-9.11,1.65.47,3.05.7,4.23.7,2.08,0,3.54-.73,4.32-2.18,1.53-2.81,1.05-8.44-9.12-26.56,9.48,12.31,15.81,17.7,20.29,17.7,3.45,0,5.69-2.91,6.87-9.16,1.17,6.26,3.41,9.16,6.87,9.16,4.48,0,10.81-5.39,20.29-17.71M123.11,0c-20.68,31.82-33.27,47.11-40.16,47.11-4.85,0-6.87-7.61-6.87-22.39,0,14.78-2.01,22.39-6.87,22.39-6.88,0-19.48-15.29-40.16-47.11,26.38,40.59,34.28,58.14,24.66,58.14-3.24,0-8.48-2-15.68-5.78,28.53,15,19.02,24.27-38.04,37.08,24.17-5.43,40.46-8.21,49.87-8.21,12.81,0,12.87,5.16,2.71,15.85,5.08-5.34,9.19-8.16,12.46-8.16,8.08,0,11.05,17.17,11.05,55.8,0-38.63,2.98-55.8,11.05-55.8,3.27,0,7.38,2.82,12.46,8.16-10.17-10.69-10.11-15.85,2.71-15.85,9.41,0,25.7,2.79,49.87,8.21-57.06-12.81-66.57-22.08-38.04-37.08-7.2,3.78-12.43,5.78-15.68,5.78-9.62,0-1.71-17.56,24.66-58.14h0Z"/>
  </g>
</svg>