<?xml version="1.0" encoding="UTF-8"?>
<svg id="Layer_2" data-name="Layer 2" xmlns="http://www.w3.org/2000/svg" viewBox="0 0 160 138.56">
  <defs>
    <style>
      .cls-1 {
        stroke-width: 0px;
      }
    </style>
  </defs>
  <g id="Layer_1-2" data-name="Layer 1">
    <path class="cls-1" d="m102.12,30.97c-6.17,12.87-7.99,20.06-6.16,23.24.77,1.34,2.12,2.02,4,2.02,1.08,0,2.36-.23,3.86-.69-2.68,2.49-3.68,4.61-3.17,6.52.89,3.32,5.98,5.89,23.64,7.22-17.66,1.33-22.75,3.9-23.64,7.22-.51,1.91.49,4.03,3.17,6.52-1.5-.46-2.77-.69-3.86-.69-1.88,0-3.23.68-4,2.02-1.83,3.17-.01,10.37,6.16,23.24-8.06-11.78-13.38-16.95-17.04-16.95-2.46,0-4.12,1.97-5.08,6.18-.96-4.22-2.62-6.18-5.08-6.18-3.67,0-8.99,5.17-17.04,16.95,6.17-12.87,7.99-20.06,6.16-23.24-.77-1.34-2.12-2.02-4-2.02-1.08,0-2.36.22-3.85.69,2.68-2.49,3.68-4.61,3.17-6.52-.89-3.32-5.98-5.89-23.64-7.22,17.66-1.33,22.75-3.9,23.64-7.22.51-1.91-.49-4.03-3.17-6.52,1.5.46,2.77.69,3.86.69,1.88,0,3.23-.68,4-2.02,1.83-3.17.01-10.37-6.16-23.23,8.06,11.78,13.38,16.95,17.04,16.95,2.46,0,4.12-1.97,5.08-6.19.96,4.22,2.62,6.19,5.08,6.19,3.67,0,8.99-5.17,17.04-16.95M120,0c-18.38,31.84-29.26,46.92-34.92,46.92-3.58,0-5.08-6.02-5.08-17.64,0,11.62-1.5,17.64-5.08,17.64-5.66,0-16.54-15.08-34.92-46.92,22.22,38.49,28.72,55.22,20.04,55.22-3.04,0-7.94-2.05-14.68-5.94,25.98,15,14.64,20-45.36,20,60,0,71.34,5,45.36,20,6.74-3.89,11.64-5.94,14.68-5.94,8.68,0,2.18,16.74-20.04,55.22,18.38-31.84,29.26-46.92,34.92-46.92,3.58,0,5.08,6.02,5.08,17.64,0-11.62,1.5-17.64,5.08-17.64,5.66,0,16.54,15.08,34.92,46.92-22.22-38.49-28.72-55.23-20.04-55.22,3.04,0,7.94,2.05,14.68,5.94-25.98-15-14.64-20,45.36-20-60,0-71.34-5-45.36-20-6.74,3.89-11.64,5.94-14.68,5.94-8.68,0-2.18-16.74,20.04-55.22h0Z"/>
  </g>
</svg>