<?xml version="1.0" encoding="UTF-8"?>
<svg id="Layer_2" data-name="Layer 2" xmlns="http://www.w3.org/2000/svg" viewBox="0 0 113.14 113.14">
  <defs>
    <style>
      .cls-1 {
        stroke-width: 0px;
      }
    </style>
  </defs>
  <g id="Layer_1-2" data-name="Layer 1">
    <path class="cls-1" d="m90.74,22.4c-12.11,14.22-16.28,22.98-14.01,28.44,1.16,2.8,3.95,4.69,8.59,5.74-4.63,1.05-7.43,2.94-8.59,5.74-2.26,5.46,1.9,14.21,14.01,28.44-11.83-10.07-19.81-14.61-25.28-14.61-3.51,0-6.11,1.85-7.72,5.49-.46,1.05-.85,2.26-1.17,3.65-1.18-5.11-3.68-9.14-8.89-9.14-5.48,0-13.45,4.53-25.28,14.6,12.11-14.22,16.28-22.97,14.01-28.44-1.16-2.8-3.95-4.69-8.59-5.74,4.63-1.05,7.43-2.94,8.59-5.74,2.26-5.46-1.9-14.21-14.01-28.44,11.83,10.07,19.81,14.61,25.28,14.61s7.71-4.03,8.89-9.13c1.18,5.1,3.68,9.13,8.89,9.13,5.48,0,13.46-4.53,25.28-14.61M113.14,0c-24.26,24.26-39.27,36-47.68,36-6.3,0-8.89-6.59-8.89-19.43,0,12.85-2.59,19.43-8.89,19.43C39.27,36,24.26,24.26,0,0c42.43,42.43,46.57,56.57,16.57,56.57,30,0,25.86,14.14-16.57,56.57,24.26-24.26,39.27-36,47.68-36,6.3,0,8.89,6.59,8.89,19.43,0-12.85,2.59-19.43,8.89-19.43,8.41,0,23.42,11.74,47.68,36-42.43-42.43-46.57-56.57-16.57-56.57-30,0-25.86-14.14,16.57-56.57h0Z"/>
  </g>
</svg>