<?xml version="1.0" encoding="UTF-8"?>
<svg id="Layer_2" data-name="Layer 2" xmlns="http://www.w3.org/2000/svg" viewBox="0 0 93 99">
  <defs>
    <style>
      .cls-1 {
        stroke-width: 0px;
      }
    </style>
  </defs>
  <g id="Layer_1-2" data-name="Layer 1">
    <path class="cls-1" d="m49.74,4.96c7.65,3.92,14.03,9.86,17.98,16.98,4.68,8.43,5.49,17.68,2.34,26.73l-.46,1.33h1.41c4.01,0,7.37-1.46,9.99-4.33,3.69-4.04,5.47-10.43,6.03-16.85.76,8.5-1.02,17.17-5.21,24.44-5.04,8.77-13.22,14.72-23.02,16.76l-1.51.32.91,1.25c3.22,4.43,8.11,6.77,14.13,6.77,1.99,0,4.09-.27,6.21-.77-6.24,2.91-12.91,4.51-19.29,4.51-9.76,0-18.23-3.72-24.49-10.76l-1.15-1.29-.55,1.64c-3.06,9.19,2.63,17.56,10.04,23.05-7.1-3.39-13.24-8.81-17.33-15.52-5.42-8.89-6.77-19.16-3.8-28.93l.51-1.69-1.71.43c-5.86,1.46-10.59,5.98-13.31,12.72-.95,2.35-1.61,4.88-1.97,7.48-.5-7.71,1.18-15.63,4.94-22.58,5.03-9.29,13.12-15.56,22.79-17.66l1.68-.37-1.15-1.28c-3.36-3.73-7.72-5.62-12.95-5.62-3.51,0-7.43.91-11.36,2.57,6.7-4.25,14.69-6.7,22.55-6.7,7.04,0,17.13,1.92,25.28,11.09l.61.69.74-.55c3.53-2.65,3.63-7.57.29-14.25v-.02s-.03-.02-.03-.02c-2.26-3.96-5.45-6.98-9.13-9.54M39,0c8,4,15,8,19,15,2,4,4,10,0,13-7.08-7.96-16.5-11.42-26.03-11.42-12,0-24.17,5.5-31.97,14.42,5.58-4.34,13.46-8.29,20.79-8.29,4.5,0,8.79,1.49,12.21,5.29C10,33-1,60,7,81c-3-12,2-28,14-31-7,23,10,45,32,49-11-4-23-15-19-27,6.94,7.81,15.95,11.1,25.24,11.1,12.12,0,24.7-5.61,33.76-14.1-5.28,4.7-13.32,8.36-20.68,8.36-5.18,0-10.02-1.81-13.32-6.36,24-5,34-31,27-52,1,11-1,30-15,30C79,26,61,5,39,0h0Z"/>
  </g>
</svg>